<svg width="38" height="37" viewBox="0 0 38 37" fill="none" xmlns="http://www.w3.org/2000/svg">
<path d="M31.2852 1.15625H25.9375C25.5158 1.15625 25.1115 1.32375 24.8133 1.6219C24.5152 1.92006 24.3477 2.32444 24.3477 2.74609C24.3477 3.16775 24.5152 3.57213 24.8133 3.87028C25.1115 4.16844 25.5158 4.33594 25.9375 4.33594H27.4471L24.7661 7.01627C23.696 5.76724 22.3681 4.76467 20.8738 4.07745C19.3795 3.39024 17.7541 3.03466 16.1094 3.03516C9.81359 3.03516 4.69141 8.15734 4.69141 14.4531C4.69141 20.2098 8.97387 24.9837 14.5195 25.7598V28.4727H12.4961C12.0744 28.4727 11.6701 28.6402 11.3719 28.9383C11.0738 29.2365 10.9062 29.6408 10.9062 30.0625C10.9062 30.4842 11.0738 30.8885 11.3719 31.1867C11.6701 31.4848 12.0744 31.6523 12.4961 31.6523H14.5195V34.2539C14.5195 34.6756 14.687 35.0799 14.9852 35.3781C15.2833 35.6762 15.6877 35.8438 16.1094 35.8438C16.531 35.8438 16.9354 35.6762 17.2336 35.3781C17.5317 35.0799 17.6992 34.6756 17.6992 34.2539V31.6523H19.7227C20.1443 31.6523 20.5487 31.4848 20.8468 31.1867C21.145 30.8885 21.3125 30.4842 21.3125 30.0625C21.3125 29.6408 21.145 29.2365 20.8468 28.9383C20.5487 28.6402 20.1443 28.4727 19.7227 28.4727H17.6992V25.7598C23.2449 24.9837 27.5273 20.2098 27.5273 14.4531C27.5282 12.8351 27.1832 11.2355 26.5156 9.76164L29.6953 6.58195V8.09375C29.6953 8.5154 29.8628 8.91979 30.161 9.21794C30.4591 9.51609 30.8635 9.68359 31.2852 9.68359C31.7068 9.68359 32.1112 9.51609 32.4093 9.21794C32.7075 8.91979 32.875 8.5154 32.875 8.09375V2.74609C32.875 2.32444 32.7075 1.92006 32.4093 1.6219C32.1112 1.32375 31.7068 1.15625 31.2852 1.15625ZM16.1094 22.6914C14.48 22.6914 12.8872 22.2082 11.5324 21.303C10.1777 20.3978 9.12173 19.1111 8.4982 17.6058C7.87466 16.1004 7.71151 14.444 8.02939 12.8459C8.34727 11.2478 9.13189 9.77992 10.284 8.62778C11.4362 7.47564 12.9041 6.69102 14.5022 6.37314C16.1002 6.05526 17.7567 6.21841 19.262 6.84195C20.7674 7.46548 22.054 8.5214 22.9593 9.87618C23.8645 11.231 24.3477 12.8237 24.3477 14.4531C24.3452 16.6373 23.4764 18.7313 21.932 20.2757C20.3875 21.8202 18.2935 22.6889 16.1094 22.6914Z" fill="#029386"/>
</svg>
